<?xml version="1.0" encoding="UTF-8"?>
<svg version="1.1" xmlns="http://www.w3.org/2000/svg" width="1500" height="889">
<path d="M0 0 C495 0 990 0 1500 0 C1500 293.37 1500 586.74 1500 889 C1005 889 510 889 0 889 C0 595.63 0 302.26 0 0 Z " fill="#FEFEFE" transform="translate(0,0)"/>
<path d="M0 0 C1.4190906 -0.01473913 2.83813285 -0.03584975 4.25701904 -0.06408691 C18.13882208 -0.31764155 30.29913973 3.05182981 40.76998901 12.53997803 C48.3194522 20.41767874 54.22097177 30.06827686 54.72897339 41.13397217 C54.78573242 42.32273453 54.84249146 43.51149689 54.90097046 44.73628235 C54.95829346 46.02372849 55.01561646 47.31117462 55.07467651 48.63763428 C55.13766563 49.97704643 55.20110854 51.31643732 55.26498413 52.6558075 C55.43256079 56.18800133 55.59548736 59.72039235 55.75698853 63.25286865 C56.0145438 68.88126976 56.27678683 74.50944172 56.54344177 80.13741875 C56.63495297 82.0901858 56.72296143 84.04311599 56.81088257 85.99604797 C57.0908051 91.96757131 57.47603986 97.88870492 58.11608887 103.83174133 C58.60310454 108.95036343 58.79781469 114.08861015 59.03952026 119.22357178 C59.09936096 120.44698273 59.15920166 121.67039368 59.22085571 122.93087769 C59.38095574 126.20810809 59.53901223 129.48542867 59.69607162 132.76280594 C59.99004383 138.88404185 60.28970219 145.005002 60.59030151 151.12591553 C60.62305365 151.79445368 60.65580578 152.46299183 60.6895504 153.15178871 C61.19216695 163.38575271 61.77497905 173.61199711 62.41549683 183.83807373 C63.08134815 194.64799205 63.61179788 205.46027709 63.79342651 216.28997803 C63.82782837 217.34451172 63.86223022 218.39904541 63.89767456 219.48553467 C63.99365003 236.68739929 52.93090903 247.71984836 41.94967651 259.54388428 C39.29807736 262.4151189 36.72427761 265.34126249 34.16452026 268.29388428 C31.92581401 270.84204453 29.6418244 273.34658396 27.35592651 275.85247803 C24.49120836 278.99331359 21.64406749 282.14348558 18.85592651 285.35247803 C15.22526944 289.53115881 11.48874075 293.61064107 7.75827026 297.70013428 C5.78650807 299.87708798 3.84227314 302.07086477 1.91842651 304.28997803 C-1.04290859 307.69936383 -4.08559835 311.03042113 -7.14407349 314.35247803 C-10.78821677 318.31109988 -14.38321066 322.30424563 -17.90969849 326.36810303 C-22.20087301 331.27782523 -26.60209457 336.0912262 -30.97219849 340.93060303 C-34.36752287 344.69548653 -37.75465691 348.46441353 -41.08157349 352.28997803 C-44.73344401 356.48412167 -48.48673533 360.58342095 -52.23391724 364.69232178 C-54.81646233 367.54274837 -57.35062452 370.43073694 -59.87454224 373.33294678 C-63.41985437 377.37914186 -67.03930253 381.35931425 -70.64407349 385.35247803 C-72.14436028 387.01888654 -73.64436221 388.68555156 -75.14407349 390.35247803 C-77.41578638 392.87748295 -79.68842763 395.40161106 -81.96438599 397.92279053 C-89.12289335 405.85781395 -96.10211648 413.83633284 -102.72610474 422.22747803 C-103.35903442 422.92872803 -103.99196411 423.62997803 -104.64407349 424.35247803 C-105.30407349 424.35247803 -105.96407349 424.35247803 -106.64407349 424.35247803 C-107.60950277 416.63826945 -108.56907624 408.92334727 -109.52493286 401.20794678 C-109.84909419 398.59347178 -110.17529606 395.97927548 -110.50247192 393.36517334 C-112.09749277 380.61479194 -113.67766058 367.86731615 -114.86282349 355.07122803 C-114.94325897 354.21560272 -115.02369446 353.35997742 -115.10656738 352.47842407 C-115.78487198 344.76317812 -115.84368059 337.09279807 -115.64407349 329.35247803 C-113.08725263 332.38915042 -111.95103521 335.02195878 -110.95657349 338.85247803 C-110.7052063 339.79091553 -110.45383911 340.72935303 -110.19485474 341.69622803 C-109.64407349 344.35247803 -109.64407349 344.35247803 -109.64407349 348.35247803 C-102.73887994 347.29728251 -95.8361967 346.2277603 -88.93704224 345.13372803 C-86.91485111 344.81406662 -84.89262595 344.49462133 -82.87039185 344.17523193 C-81.51641914 343.9608921 -80.16257645 343.74572919 -78.80886841 343.52972412 C-69.92669946 342.11364832 -61.04531279 340.86291795 -52.11209106 339.81195068 C-47.86801363 339.24965897 -43.79490001 338.39018466 -39.64407349 337.35247803 C-39.88942508 329.72204356 -40.64949219 322.41641157 -42.31985474 314.97747803 C-42.58132042 313.8127446 -42.58132042 313.8127446 -42.84806824 312.6244812 C-44.86614542 303.967638 -47.64996463 295.61093841 -50.58157349 287.22747803 C-51.00184311 286.01322647 -51.00184311 286.01322647 -51.43060303 284.77444458 C-63.46959313 241.64789134 -63.46959313 241.64789134 -89.64407349 209.35247803 C-99.01985379 204.86913306 -108.69414323 201.27504012 -118.51907349 197.91497803 C-136.08219299 191.85967741 -151.29448814 185.2387727 -165.87088013 173.51654053 C-168.90074962 171.52749775 -170.77307046 171.17698914 -174.35110474 171.89788818 C-175.37590942 172.18454346 -176.40071411 172.47119873 -177.45657349 172.76654053 C-184.91606772 174.59390825 -191.99282583 174.79774459 -199.64407349 174.72747803 C-200.90735474 174.73907959 -202.17063599 174.75068115 -203.47219849 174.76263428 C-215.31067104 174.72609578 -226.05303718 172.74378074 -236.64407349 167.35247803 C-236.88496704 167.94294922 -237.1258606 168.53342041 -237.37405396 169.14178467 C-241.92788978 177.06854042 -253.57247547 180.90639236 -261.51907349 184.41497803 C-273.10323131 189.60670011 -284.49914794 195.02692788 -295.58157349 201.22747803 C-296.34518188 201.65456055 -297.10879028 202.08164307 -297.89553833 202.52166748 C-318.72904041 214.24351324 -327.78410372 224.14172263 -338.14407349 245.41497803 C-338.66514679 246.48487473 -338.66514679 246.48487473 -339.19674683 247.5763855 C-360.92698256 287.22433014 -360.92698256 287.22433014 -366.64407349 329.35247803 C-365.18615489 331.14633795 -365.18615489 331.14633795 -363.64407349 332.35247803 C-363.64407349 333.01247803 -363.64407349 333.67247803 -363.64407349 334.35247803 C-363.09493286 334.62422852 -362.54579224 334.895979 -361.98001099 335.17596436 C-360.35105741 335.9963999 -358.73186545 336.8363825 -357.12063599 337.69110107 C-349.50615738 341.65806189 -341.81081281 344.54928037 -333.64407349 347.16497803 C-331.84389771 347.75569092 -331.84389771 347.75569092 -330.00735474 348.3583374 C-320.50803986 351.4967484 -320.50803986 351.4967484 -310.64407349 352.78997803 C-309.61282349 352.85056396 -308.58157349 352.9111499 -307.51907349 352.97357178 C-304.44699961 352.59434188 -304.44699961 352.59434188 -302.40188599 349.96966553 C-299.93794436 345.66541177 -299.31600603 340.87354718 -298.51907349 336.03997803 C-298.21170389 334.23005374 -297.89699266 332.42135567 -297.57376099 330.61419678 C-297.44211548 329.81973145 -297.31046997 329.02526611 -297.17483521 328.20672607 C-296.99968384 327.59482422 -296.82453247 326.98292236 -296.64407349 326.35247803 C-295.98407349 326.02247803 -295.32407349 325.69247803 -294.64407349 325.35247803 C-288.85210161 350.88048574 -295.16166758 381.76133083 -298.64407349 407.35247803 C-304.17435091 403.37645565 -309.22385248 399.1194055 -314.14407349 394.41497803 C-315.4622332 393.16928555 -316.78123363 391.92448205 -318.10110474 390.68060303 C-319.02850464 389.80565186 -319.02850464 389.80565186 -319.97463989 388.9130249 C-322.46809494 386.58220234 -325.03788993 384.34799546 -327.62454224 382.12200928 C-330.33893629 379.74363306 -332.98976474 377.29735449 -335.64407349 374.85247803 C-339.60259688 371.20823033 -343.59584395 367.61333837 -347.65969849 364.08685303 C-352.53768975 359.82341185 -357.33268401 355.46303587 -362.11672974 351.09466553 C-366.40564496 347.19318005 -370.75013408 343.42382861 -375.26907349 339.78997803 C-379.35697725 336.48400804 -383.09476372 333.02088445 -386.74954224 329.24700928 C-388.63823184 327.35831968 -390.60416555 325.63800706 -392.64407349 323.91497803 C-400.55902972 317.0263226 -405.92441704 310.22831007 -409.64407349 300.35247803 C-410.01016724 299.42950928 -410.37626099 298.50654053 -410.75344849 297.55560303 C-414.06839866 285.63341379 -412.14885349 271.40611655 -406.17141724 260.71966553 C-401.71982902 254.00544972 -396.11660128 248.23300628 -390.64407349 242.35247803 C-389.44980812 241.00427409 -388.26157892 239.65068034 -387.08157349 238.28997803 C-382.99489783 233.59077956 -378.81700545 228.97501883 -374.64407349 224.35247803 C-373.1437867 222.68606952 -371.64378476 221.0194045 -370.14407349 219.35247803 C-367.14407349 216.01914469 -364.14407349 212.68581136 -361.14407349 209.35247803 C-360.40415161 208.53005615 -359.66422974 207.70763428 -358.90188599 206.86029053 C-357.37699104 205.16654908 -355.85091947 203.47386634 -354.32376099 201.78216553 C-350.92534416 198.01510688 -347.53590739 194.24332216 -344.20657349 190.41497803 C-340.55470296 186.22083438 -336.80141165 182.1215351 -333.05422974 178.01263428 C-330.47168465 175.16220769 -327.93752245 172.27421911 -325.41360474 169.37200928 C-321.8682926 165.32581419 -318.24884444 161.34564181 -314.64407349 157.35247803 C-313.1437867 155.68606952 -311.64378476 154.0194045 -310.14407349 152.35247803 C-307.87236059 149.8274731 -305.59971935 147.30334499 -303.32376099 144.78216553 C-299.92534416 141.01510688 -296.53590739 137.24332216 -293.20657349 133.41497803 C-289.55470296 129.22083438 -285.80141165 125.1215351 -282.05422974 121.01263428 C-279.46730354 118.15737214 -276.92848832 115.26491487 -274.40188599 112.35638428 C-272.44403763 110.12443715 -270.45157447 107.92626944 -268.45657349 105.72747803 C-265.40909439 102.3562364 -262.43062083 98.93883812 -259.49514771 95.47064209 C-253.84906382 88.80292146 -248.00385043 82.36580947 -241.98342896 76.03363037 C-238.30468596 72.15890107 -234.73356206 68.21316767 -231.23123169 64.17816162 C-229.23062236 61.87689157 -227.19065862 59.61288549 -225.14407349 57.35247803 C-222.47359004 54.39378052 -219.8210929 51.42321331 -217.20657349 48.41497803 C-213.55774019 44.22432262 -209.80838991 40.12776561 -206.06204224 36.02435303 C-203.99592915 33.74128138 -201.96737309 31.43410184 -199.95657349 29.10247803 C-199.39454224 28.46825928 -198.83251099 27.83404053 -198.25344849 27.18060303 C-197.21792159 26.0043249 -196.20513341 24.80742057 -195.22219849 23.58685303 C-188.58556323 15.99235289 -176.60357221 9.95649217 -166.58633423 9.08709717 C-165.38786865 9.02127441 -164.18940308 8.95545166 -162.95462036 8.88763428 C-161.95853256 8.83130325 -161.95853256 8.83130325 -160.94232178 8.77383423 C-158.7493377 8.65065775 -156.55609756 8.53286782 -154.36282349 8.41497803 C-152.8278493 8.32950511 -151.29289675 8.2436428 -149.75796509 8.15740967 C-145.71199938 7.9309375 -141.66580823 7.7087992 -137.61953735 7.487854 C-131.17264624 7.13529213 -124.72607656 6.77696021 -118.27958679 6.41714478 C-116.04435759 6.29311503 -113.80901169 6.17139877 -111.57363892 6.04998779 C-104.467617 5.65930272 -97.37717874 5.18974402 -90.28665161 4.57119751 C-86.47678687 4.25586468 -82.66576928 4.06070318 -78.84719849 3.88763428 C-77.22944034 3.81001806 -75.61168322 3.73238048 -73.993927 3.65472412 C-72.29397776 3.5747677 -70.59402654 3.49485333 -68.89407349 3.41497803 C-53.9754432 2.71088325 -53.9754432 2.71088325 -39.06985474 1.77825928 C-26.04745089 0.86033492 -13.05485183 0.12332688 0 0 Z " fill="#010101" transform="translate(923.6440734863281,129.64752197265625)"/>
<path d="M0 0 C13.25920026 8.98557373 21.98265823 21.65430845 25.8984375 37.171875 C26.33871862 40.53823334 26.42344317 43.84183339 26.3984375 47.234375 C26.39271729 48.14687012 26.38699707 49.05936523 26.38110352 49.99951172 C25.98017768 65.44528066 20.29882623 78.44531457 9.8359375 89.859375 C-1.81341096 100.87689439 -17.10677637 106.87218527 -33.13134766 106.64282227 C-49.52006696 105.8949952 -64.08329843 98.14492798 -75.1015625 86.171875 C-85.67041881 72.31673323 -89.77228172 56.43027636 -88.1015625 39.171875 C-85.02999176 22.71046298 -75.59862685 9.94279733 -62.34375 0.2578125 C-43.4487052 -11.89875849 -19.0534681 -11.23050765 0 0 Z " fill="#040404" transform="translate(807.1015625,661.828125)"/>
<path d="M0 0 C59.00373832 0 59.00373832 0 69.15625 9.83984375 C75.57254636 17.35724181 76.66594769 25.43889395 76 35 C74.20985252 43.68748043 69.93653484 49.63995035 63 55 C63.58007812 55.3403125 64.16015625 55.680625 64.7578125 56.03125 C71.49329383 60.21036053 75.82600247 64.65200495 79.375 71.75 C81.32132689 81.87089982 80.25348102 90.58028991 74.52734375 99.22265625 C69.41752257 105.68543244 62.90944824 109.02263794 55 111 C36.85 111 18.7 111 0 111 C0 74.37 0 37.74 0 0 Z " fill="#030303" transform="translate(510,655)"/>
<path d="M0 0 C56.87196828 0 56.87196828 0 67.0546875 9.78125 C74.78303299 18.59590912 75.69215842 27.61331544 75 39 C73.85105718 47.0678512 69.01139142 52.74003251 63 58 C59.77698752 59.99647717 56.5217888 61.60304829 53 63 C54.44688888 67.0493405 56.41232541 70.34405577 58.81640625 73.90234375 C59.1893129 74.45741608 59.56221954 75.0124884 59.94642639 75.5843811 C60.73966593 76.76422385 61.53493846 77.94270194 62.33209229 79.11990356 C63.97905813 81.55285259 65.61502682 83.99311401 67.25146484 86.43315125 C68.05697158 87.63408764 68.86295718 88.83470297 69.66943359 90.0349884 C72.68552298 94.52430874 75.68239852 99.02465583 78.625 103.5625 C79.29789063 104.59503906 79.97078125 105.62757813 80.6640625 106.69140625 C82 109 82 109 82 111 C75.39021892 112.21113941 68.49211102 113.13845737 62 111 C56.89329028 106.87952037 54.24755293 100.51174273 51.40625 94.73828125 C49.07409418 90.19705561 46.27421686 85.96751515 43.5 81.6875 C42.5297005 80.15071682 41.5608648 78.61300809 40.59375 77.07421875 C38.99549768 74.54033264 37.3559176 72.04878567 35.65625 69.58203125 C34 67 34 67 34 65 C28.72 65 23.44 65 18 65 C18 80.18 18 95.36 18 111 C12.06 111 6.12 111 0 111 C0 74.37 0 37.74 0 0 Z " fill="#030303" transform="translate(986,655)"/>
<path d="M0 0 C8.14941451 5.7645524 13.92264525 13.90332348 16.5859375 23.52734375 C18.38522899 35.59260822 16.53888196 47.07694001 9.7421875 57.30078125 C3.38722811 65.19705542 -6.26488854 71.10115264 -16.4140625 72.52734375 C-28.64941908 73.72342829 -39.39554186 70.29733301 -49.03515625 62.734375 C-57.95038926 54.46326392 -61.26736473 43.73306593 -61.7265625 31.83984375 C-61.60154567 20.6300016 -56.95485925 12.32337874 -49.37890625 4.3984375 C-36.07159318 -8.34560306 -15.68261096 -9.56690021 0 0 Z " fill="#FCFCFC" transform="translate(798.4140625,677.47265625)"/>
<path d="M0 0 C5.94 0 11.88 0 18 0 C18.0093457 2.25513428 18.01869141 4.51026855 18.02832031 6.83374023 C18.06218525 14.30972398 18.11778677 21.78543444 18.18390274 29.261199 C18.22330346 33.79092736 18.25552807 38.32046347 18.27099609 42.8503418 C18.28621173 47.22724031 18.32074345 51.60361004 18.36830902 55.98027229 C18.38307246 57.64464772 18.39103811 59.30909866 18.39188385 60.97353935 C18.32777654 73.52105683 18.32777654 73.52105683 23 85 C23.5775 85.928125 24.155 86.85625 24.75 87.8125 C30.91179825 93.80313719 38.45368151 95.38037078 46.796875 95.26953125 C53.91225654 94.67079793 59.16235363 92.33902562 64 87.0625 C68.35484999 81.79690013 69.29842764 76.99682724 69.31884766 70.2722168 C69.32889328 69.51070816 69.3389389 68.74919952 69.34928894 67.96461487 C69.38006237 65.45949017 69.39713966 62.95447206 69.4140625 60.44921875 C69.43277886 58.70757636 69.45235263 56.965943 69.4727478 55.22431946 C69.52402558 50.64921391 69.56367458 46.07407899 69.60089111 41.49884033 C69.64095807 36.82662716 69.69203814 32.15453578 69.7421875 27.48242188 C69.83889531 18.32169172 69.92229824 9.1609111 70 0 C75.94 0 81.88 0 88 0 C88.13603866 10.74496159 88.24590918 21.48934288 88.31087303 32.23497391 C88.34206662 37.22566199 88.38431821 42.21572579 88.45263672 47.20605469 C88.51825954 52.03015957 88.55379588 56.85366742 88.56926346 61.67818451 C88.58027334 63.51047909 88.60177186 65.34274431 88.63438034 67.1747818 C88.86656532 80.77144517 87.25875918 90.33060032 77.875 100.875 C67.09342846 110.87608741 54.32892759 113.72009273 40.06640625 113.30859375 C27.84228669 112.61492462 16.47729801 107.03107753 8.0625 98.1875 C4.59061747 93.91633517 2.64979499 89.21548092 1 84 C0.73353416 83.18018646 0.73353416 83.18018646 0.46168518 82.34381104 C-0.20274848 78.97071826 -0.13030036 75.62537027 -0.11352539 72.20214844 C-0.11367142 71.42127869 -0.11381744 70.64040894 -0.1139679 69.83587646 C-0.11327242 67.26034751 -0.10549712 64.68489129 -0.09765625 62.109375 C-0.09579077 60.32147257 -0.09436748 58.53356963 -0.09336853 56.7456665 C-0.08955357 52.04389022 -0.07973198 47.34214492 -0.06866455 42.64038086 C-0.05842849 37.84098734 -0.0538662 33.0415888 -0.04882812 28.2421875 C-0.03810881 18.82810921 -0.02052026 9.41406203 0 0 Z " fill="#030303" transform="translate(863,655)"/>
<path d="M0 0 C6.6 0 13.2 0 20 0 C22.6218469 6.43923602 25.06648396 12.88874438 27.28515625 19.4765625 C27.58304047 20.3535379 27.88092468 21.23051331 28.18783569 22.13406372 C29.14845361 24.96356943 30.10545651 27.79428354 31.0625 30.625 C32.06205613 33.57155855 33.0625926 36.51778303 34.06318665 39.46398926 C34.7344585 41.4406933 35.40542829 43.41749994 36.07609558 45.39440918 C39.17311534 54.52102787 42.29987229 63.63727479 45.4375 72.75 C45.90829132 74.11799896 46.37907605 75.48600018 46.84985352 76.85400391 C47.89939194 79.90284549 48.94938742 82.95152843 50 86 C56.54310325 68.10349848 62.75222821 50.10769295 68.83093262 32.04980469 C70.40758879 27.36672452 71.98643779 22.68438512 73.56750488 18.00279236 C74.40259756 15.52931455 75.23623357 13.05534435 76.0682373 10.58082581 C76.43952759 9.48044479 76.81081787 8.38006378 77.19335938 7.24633789 C77.68225647 5.79391441 77.68225647 5.79391441 78.18103027 4.31214905 C79 2 79 2 80 0 C86.6 0 93.2 0 100 0 C99.35130014 3.24349931 98.77193005 5.91398913 97.6875 8.95263672 C97.42148483 9.70322861 97.15546967 10.4538205 96.88139343 11.22715759 C96.44510368 12.4411599 96.44510368 12.4411599 96 13.6796875 C95.53839226 14.97665306 95.53839226 14.97665306 95.06745911 16.29981995 C94.04847451 19.15947635 93.02434262 22.01725892 92 24.875 C91.28586049 26.87501321 90.57191503 28.87509572 89.8581543 30.87524414 C82.85820609 50.47038379 75.77287613 70.03478783 68.6789856 89.59606934 C66.09635611 96.7226325 63.54164439 103.85871954 61 111 C54.07 111 47.14 111 40 111 C34.57064112 97.23371769 29.48020125 83.37165846 24.5 69.4375 C22.9209659 65.029339 21.33987914 60.62191723 19.7578125 56.21484375 C19.3622818 55.11276581 18.9667511 54.01068787 18.55923462 52.87521362 C15.89792114 45.47033671 13.20688391 38.07687058 10.4921875 30.69140625 C10.1402533 29.73350693 9.78831909 28.7756076 9.42572021 27.78868103 C7.76182977 23.26288439 6.09344704 18.73879503 4.41992188 14.21655273 C3.82934649 12.61314817 3.23884706 11.00971563 2.6484375 9.40625 C2.3774826 8.67849869 2.10652771 7.95074738 1.82736206 7.20094299 C0 2.22651631 0 2.22651631 0 0 Z " fill="#040404" transform="translate(334,655)"/>
<path d="M0 0 C9.61802499 6.33457685 14.77300392 13.63932426 18.42578125 24.59765625 C19.42190689 37.00840195 17.49146082 46.92508691 9.4140625 56.59375 C3.09902956 62.95840991 -5.30842771 67.92749896 -14.42163086 68.01513672 C-15.09073486 68.00111816 -15.75983887 67.98709961 -16.44921875 67.97265625 C-17.15248291 67.96250488 -17.85574707 67.95235352 -18.58032227 67.94189453 C-28.91884802 67.63399431 -37.19181859 63.94820789 -44.5546875 56.62890625 C-51.19230587 48.81661341 -54.34673073 39.49421564 -53.890625 29.25390625 C-52.60122582 18.42932054 -47.79395255 9.5950165 -39.2265625 2.80859375 C-28.33322497 -5.17470326 -11.98604203 -6.52957373 0 0 Z " fill="#FCFCFC" transform="translate(914.57421875,183.40234375)"/>
<path d="M0 0 C8.86170092 5.92153968 8.86170092 5.92153968 11 11 C2.738041 19.6309795 2.738041 19.6309795 -2 22 C-2.495 20.515 -2.495 20.515 -3 19 C-4.79707662 17.87151132 -4.79707662 17.87151132 -7 17 C-7.75796875 16.64679687 -8.5159375 16.29359375 -9.296875 15.9296875 C-16.07881967 13.01388326 -21.13618049 11.5419549 -28.3125 14.25 C-31.04148645 16.02701443 -32.30047152 17.26322348 -34 20 C-34.54493455 22.375066 -34.54493455 22.375066 -34.5 24.875 C-34.54640625 26.10863281 -34.54640625 26.10863281 -34.59375 27.3671875 C-33.75203515 31.09952835 -31.77756187 33.48990705 -29 36 C-25.79464481 37.95467435 -25.79464481 37.95467435 -22.1875 39.4375 C-21.21550659 39.87280029 -21.21550659 39.87280029 -20.22387695 40.31689453 C-16.78259411 41.84754545 -13.30893142 43.28420426 -9.8125 44.68359375 C1.14063574 49.12726054 11.22778994 54.59209128 16.21875 66 C18.39773609 74.36730658 18.54916695 83.86849838 14.75 91.75 C13.87149866 93.19064486 12.959741 94.61215295 12 96 C11.443125 96.9075 10.88625 97.815 10.3125 98.75 C0.76537202 108.0390975 -10.74725168 110.42075973 -23.59375 110.2734375 C-36.9794329 109.19889873 -46.86782063 101.89621124 -55.50390625 92.11328125 C-56.99000196 90.01412256 -57.58556033 88.5150243 -58 86 C-47.62642369 78.33257403 -47.62642369 78.33257403 -42 77 C-41.64808594 77.60328125 -41.29617188 78.2065625 -40.93359375 78.828125 C-37.1983083 84.87480119 -34.10679047 88.40210362 -27.15234375 90.578125 C-19.8463122 92.01016022 -12.44737785 91.84099106 -6 88 C-2.98635457 84.78544488 -2.07668898 82.0353012 -1.75 77.625 C-2.09348932 72.64440492 -3.52456153 70.30948406 -7.22265625 67.02734375 C-10.1581365 64.88456703 -12.88295871 63.60639104 -16.25 62.25 C-17.48664282 61.73669548 -18.72227513 61.22095154 -19.95703125 60.703125 C-20.60881348 60.43048828 -21.2605957 60.15785156 -21.93212891 59.87695312 C-25.62773474 58.3097021 -29.28753494 56.67043157 -32.9375 55 C-33.98309082 54.53835449 -33.98309082 54.53835449 -35.04980469 54.06738281 C-41.88331342 50.91068778 -47.68319588 46.89696906 -50.875 39.875 C-51.26429687 39.04742188 -51.65359375 38.21984375 -52.0546875 37.3671875 C-55.41998924 28.94002695 -54.62415203 20.85728451 -51.25 12.5390625 C-47.48967388 4.90090008 -41.54803531 0.71174014 -34 -3 C-23.80316987 -6.03857027 -9.05440794 -5.74059505 0 0 Z " fill="#050505" transform="translate(1142,658)"/>
<path d="M0 0 C7.26279706 -1.19721761 14.85146097 -2.17371008 22 0 C27.22327494 4.00785172 29.76973133 10.39881993 32.56103516 16.19677734 C35.06239497 21.06963337 38.18701922 25.52996791 41.25 30.0625 C42.3655248 31.73680431 43.47543111 33.41487382 44.578125 35.09765625 C45.04637695 35.80414307 45.51462891 36.51062988 45.99707031 37.23852539 C47 39 47 39 47 41 C49.72220007 38.52069595 51.5492885 35.76552599 53.51171875 32.66015625 C54.18783203 31.59603516 54.86394531 30.53191406 55.56054688 29.43554688 C56.26244141 28.32244141 56.96433594 27.20933594 57.6875 26.0625 C72.77911238 2.22088762 72.77911238 2.22088762 75 0 C76.56172745 -0.08685603 78.12729344 -0.10702219 79.69140625 -0.09765625 C80.63564453 -0.09443359 81.57988281 -0.09121094 82.55273438 -0.08789062 C83.54595703 -0.07951172 84.53917969 -0.07113281 85.5625 -0.0625 C86.55958984 -0.05798828 87.55667969 -0.05347656 88.58398438 -0.04882812 C91.05604849 -0.03700007 93.52799518 -0.02051849 96 0 C89.27922758 10.71792096 82.27721336 21.25244129 75.3125 31.8125 C74.07739856 33.68679927 72.84237194 35.56114786 71.60742188 37.43554688 C69.34589026 40.86722781 67.08430657 44.29887403 64.8215332 47.72973633 C64.3376413 48.47735229 63.85374939 49.22496826 63.35519409 49.99523926 C62 52 62 52 59.65991211 54.81176758 C57.07120236 59.78396357 57.39664166 64.65417092 57.390625 70.1796875 C57.37408875 71.3475882 57.35755249 72.51548889 57.34051514 73.71878052 C57.29205147 77.43757394 57.27066668 81.15595843 57.25 84.875 C57.22183913 87.40106222 57.19191155 89.92710541 57.16015625 92.453125 C57.08629217 98.63538301 57.03670693 104.81741422 57 111 C51.06 111 45.12 111 39 111 C39.06396973 109.5358667 39.12793945 108.0717334 39.19384766 106.56323242 C41.15130065 67.24628407 41.15130065 67.24628407 22.69775391 34.21240234 C17.94873241 28.73563295 14.16180047 22.50931446 10.22305298 16.44137573 C8.89708437 14.40885223 7.55270305 12.39002151 6.19995117 10.37524414 C5.78445511 9.75562302 5.36895905 9.13600189 4.94087219 8.49760437 C4.54530624 7.9080043 4.1497403 7.31840424 3.7421875 6.7109375 C0 1.12474939 0 1.12474939 0 0 Z " fill="#030303" transform="translate(606,655)"/>
<path d="M0 0 C5.94 0 11.88 0 18 0 C18 36.63 18 73.26 18 111 C12.06 111 6.12 111 0 111 C0 74.37 0 37.74 0 0 Z " fill="#020202" transform="translate(457,655)"/>
<path d="M0 0 C4.5908602 -0.09212428 9.17848115 -0.17166281 13.76953125 -0.21972656 C15.32921244 -0.23977222 16.88881913 -0.26701657 18.44824219 -0.30175781 C20.69745314 -0.35059126 22.9456659 -0.37303815 25.1953125 -0.390625 C26.23161301 -0.42159271 26.23161301 -0.42159271 27.28884888 -0.45318604 C33.51235277 -0.45603393 36.9246905 2.03686939 41.3125 6.1875 C43.64126002 10.0687667 44.18354675 13.49911445 44 18 C43 21.1875 43 21.1875 41 24 C40.63253662 24.51941162 40.26507324 25.03882324 39.88647461 25.57397461 C36.92096222 28.866442 34.68345909 29.91193636 30.24267578 30.48413086 C25.67846231 30.66585339 21.1256929 30.52366257 16.5625 30.375 C14.95643004 30.344871 13.35030583 30.31750034 11.74414062 30.29296875 C7.82698892 30.23230042 3.91742502 30.11490546 0 30 C0 20.1 0 10.2 0 0 Z " fill="#FBFBFB" transform="translate(528,719)"/>
<path d="M0 0 C6.991875 -0.12375 6.991875 -0.12375 14.125 -0.25 C15.58437988 -0.28641602 17.04375977 -0.32283203 18.54736328 -0.36035156 C19.70993652 -0.3703418 20.87250977 -0.38033203 22.0703125 -0.390625 C23.84559326 -0.4220459 23.84559326 -0.4220459 25.65673828 -0.45410156 C30.84063877 0.25000643 33.88659027 2.7986895 37.375 6.5625 C39.67380117 11.42534864 39.65624851 15.70950279 39 21 C37.19750811 25.60636818 33.9107761 28.12677674 30 31 C26.6526492 32.17247503 23.4460988 32.11493186 19.921875 32.09765625 C18.87612305 32.09515869 17.83037109 32.09266113 16.75292969 32.09008789 C14.77147949 32.07643188 14.77147949 32.07643188 12.75 32.0625 C8.5425 32.041875 4.335 32.02125 0 32 C0 21.44 0 10.88 0 0 Z " fill="#FBFBFB" transform="translate(1004,672)"/>
<path d="M0 0 C6.6825 -0.12375 6.6825 -0.12375 13.5 -0.25 C15.58344727 -0.30462402 15.58344727 -0.30462402 17.70898438 -0.36035156 C24.95491612 -0.42515938 29.92779202 -0.09436139 36 4 C38.75200565 7.16371913 39.89384931 10.27021403 40.5 14.4375 C39.77369047 19.61245543 38.30297307 23.73301088 34.515625 27.46118164 C27.9565225 32.14742094 21.28450432 31.56761862 13.5 31.3125 C6.8175 31.1578125 6.8175 31.1578125 0 31 C0 20.77 0 10.54 0 0 Z " fill="#F9F9F9" transform="translate(528,672)"/>
<path d="M0 0 C2.71843438 3.62457917 3.41789544 4.80884715 4 9 C3.34 9 2.68 9 2 9 C1.67 11.31 1.34 13.62 1 16 C0.67 16 0.34 16 0 16 C0 10.72 0 5.44 0 0 Z " fill="#292929" transform="translate(808,459)"/>
</svg>
